<?xml version="1.0" standalone="no"?>
<!DOCTYPE svg PUBLIC "-//W3C//DTD SVG 20010904//EN"
 "http://www.w3.org/TR/2001/REC-SVG-20010904/DTD/svg10.dtd">
<svg version="1.0" xmlns="http://www.w3.org/2000/svg"
 width="900.000000pt" height="900.000000pt" viewBox="0 0 900.000000 900.000000"
 preserveAspectRatio="xMidYMid meet">
<metadata>
Created by potrace 1.14, written by Peter Selinger 2001-2017
</metadata>
<g transform="translate(0.000000,900.000000) scale(0.100000,-0.100000)"
fill="#000000" stroke="none">
<path d="M4229 6517 c-276 -201 -1048 -765 -1494 -1090 -143 -104 -307 -225
-365 -267 -58 -43 -251 -184 -430 -314 -179 -130 -333 -243 -343 -251 -9 -8
-21 -15 -26 -15 -5 0 -11 -3 -13 -8 -2 -4 -37 -32 -78 -62 -139 -101 -365
-266 -475 -347 -152 -112 -374 -273 -517 -376 -86 -61 -157 -115 -158 -118 0
-3 1877 -6 4171 -6 3948 0 4169 1 4152 17 -10 10 -178 134 -373 276 -195 141
-367 267 -381 278 -15 12 -53 40 -85 63 -78 55 -866 630 -879 640 -5 5 -35 26
-65 48 -30 21 -179 130 -330 240 -151 111 -367 269 -480 351 -113 83 -303 222
-423 310 -120 87 -231 168 -247 179 -65 44 -836 610 -856 627 -11 10 -25 18
-31 18 -5 0 -129 -87 -274 -193z"/>
<path d="M510 3374 c0 -3 15 -29 33 -57 19 -29 71 -113 117 -187 46 -74 96
-155 112 -180 15 -25 115 -184 221 -355 l194 -310 3320 0 3321 0 71 115 c39
63 76 122 81 130 6 8 105 168 221 355 116 187 231 370 255 407 24 37 44 72 44
77 0 7 -1415 10 -3995 10 -2197 0 -3995 -2 -3995 -5z"/>
</g>
</svg>
